<svg xmlns="http://www.w3.org/2000/svg" width="64" height="64" viewBox="0 0 64 64">
  <defs>
    <linearGradient id="g" x1="0" y1="0" x2="1" y2="1">
      <stop offset="0" stop-color="#00e69a"/>
      <stop offset="1" stop-color="#ff3b72"/>
    </linearGradient>
    <filter id="glow" x="-50%" y="-50%" width="200%" height="200%">
      <feGaussianBlur stdDeviation="2" result="b"/>
      <feMerge>
        <feMergeNode in="b"/>
        <feMergeNode in="SourceGraphic"/>
      </feMerge>
    </filter>
  </defs>
  <rect width="64" height="64" rx="16" fill="#05070c"/>
  <path d="M32 10l16 7v12c0 12-6.8 21.7-16 25-9.2-3.3-16-13-16-25V17l16-7z" fill="url(#g)" opacity="0.9"/>
  <path d="M32 16l11 4.8v8.6c0 8.7-4.8 16-11 18.7-6.2-2.7-11-10-11-18.7v-8.6L32 16z" fill="#05070c" opacity="0.55"/>
  <circle cx="32" cy="31" r="6.5" fill="#00e69a" filter="url(#glow)" opacity="0.95"/>
  <path d="M29.5 31l2 2.2 3.8-5" fill="none" stroke="#05070c" stroke-width="2.4" stroke-linecap="round" stroke-linejoin="round"/>
</svg>

